<svg id="Layer_1" data-name="Layer 1" xmlns="http://www.w3.org/2000/svg" viewBox="0 0 172 48"><defs><style>.cls-1,.cls-3{fill:#424243;}.cls-1,.cls-2{fill-rule:evenodd;}.cls-2{fill:#ee5030;}</style></defs><title>logo</title><path class="cls-1" d="M44.05,36.55a.73.73,0,0,0,.36.78c1.32,0,2.13,0,3.42,0,.38-.07.53-.32.62-1,.06-.33.12-.78.2-1.39.3-2.25.75-4.52,1.11-6.73.19-1.11.38-2.25.56-3.32.36-2.19.86-4.58,1.17-6.74L52,14.66a8.73,8.73,0,0,0,.28,1.49l3.5,16.55a9.92,9.92,0,0,0,1.31,3.63c1.27,1.82,3.92,1.08,4.65-1.42.28-.75,1.37-7.66,1.54-8.69L66.57,6.46c.17-1,.16-1.45-.31-1.61A13.73,13.73,0,0,0,63,4.77c-.86.05-.84,1.59-1,2.35l-1.35,8.61c-.41,2.94-1,5.76-1.36,8.6a24.05,24.05,0,0,1-.49,2.9,7.19,7.19,0,0,0-.26-1.5l-.33-1.51L54.44,6.39a2.15,2.15,0,0,0-.73-1.1A3.24,3.24,0,0,0,49,6.81a15.3,15.3,0,0,0-.42,2.06L47.88,13c-.34,2-.79,4.31-1.07,6.35L44.7,32c-.15.9-.65,3.81-.65,4.51"/><path class="cls-1" d="M5.79,34.43c0,2,1.37,3,3.68,2.9H16c3.69,0,7.61-3.3,8.64-6.61a41.76,41.76,0,0,0,1-5.6c0-1.83-.18-3.37-1.53-4.68a6.87,6.87,0,0,0-1-.75,2.14,2.14,0,0,0,1-.63A8.5,8.5,0,0,0,27.05,14c.38-1.89.64-4.15-.34-5.89a8,8,0,0,0-1.13-1.55C23,4.08,19,4.83,17.65,4.7c-1.75,0-3.73-.15-5.09.34A4.31,4.31,0,0,0,10.5,6.58,7.78,7.78,0,0,0,10.1,8c-.12.5-.22,1-.33,1.51-.59,3-4,21.28-4,24.9M12.64,18c0-.77,1.44-8,1.55-9.39l6.39,0A2.88,2.88,0,0,1,23,10.5a6,6,0,0,1-.08,3.15c-.39,1.94-1.17,3.4-3.2,4.07A13.56,13.56,0,0,1,16.2,18ZM10,33.48l1.89-11.36c.06-.49-.05-.4,1.22-.4h5c1.73-.1,2.66.57,3.1,1.76a6.72,6.72,0,0,1,0,3.64c-.27,2.12-.55,3.89-2.3,5.18a6.29,6.29,0,0,1-1.79,1,8.26,8.26,0,0,1-1.94.22Z"/><path class="cls-1" d="M83.17,30.69a6.21,6.21,0,0,0,1.6,4.25,6,6,0,0,0,2.8,1.86,10.92,10.92,0,0,0,10.2-1.75,5.77,5.77,0,0,0,1.33-1.28c1.83-2,2.2-5.23,2.57-8,.1-.76.25-1.45.38-2.24.07-.4.11-.77.19-1.15a3,3,0,0,0-.7-3.13,2.65,2.65,0,0,0-1.92-.76c-.72,0-5.8,0-6,.12-.7.12-1.23,3.66-.58,4.16.37.29,3.75.17,4.63.17,0,.47-.11.78-.18,1.23a48,48,0,0,1-1.11,6,4.78,4.78,0,0,1-3.21,2.51,5.19,5.19,0,0,1-4.51-.61c-1.53-1.15-.78-3.34-.48-5.16l1.52-9.21c.17-1,.34-2,.51-3,.29-1.79.44-3.82,2.31-4.89a5.55,5.55,0,0,1,3.6-.85,3.23,3.23,0,0,1,2.83,1.68c.7,1.55-.34,3.4,1.19,3.4h2.75c.58,0,.74-.29.83-.8a9.23,9.23,0,0,0-.47-4.56,7.28,7.28,0,0,0-6.71-4.17A10.78,10.78,0,0,0,90.3,6.18a10.1,10.1,0,0,0-2.54,2.33,10,10,0,0,0-.92,1.56c-.77,1.55-1.33,6-1.66,8L83.46,28.51a17.82,17.82,0,0,0-.29,2.18"/><path class="cls-1" d="M136.26,19.11a4.63,4.63,0,0,0-1.88-1.79,4.24,4.24,0,0,0-1.38-.47,6.07,6.07,0,0,0-3.88.2c-.56.22-1.4.72-1.55.78-.11-.49.27-.8-.48-.8s-1.9,0-2.81,0a.79.79,0,0,0-.56.55,10.14,10.14,0,0,0-.28,1.49l-3.21,18.11a.77.77,0,0,0,.85.85h3c.42,0,.51-.64.56-.92.09-.44.16-.78.24-1.25.31-1.84,1.92-11.25,2.29-12.53a3.34,3.34,0,0,1,1.28-1.69c2.3-1.7,5-.61,5,1.28a10.22,10.22,0,0,1-.21,1.83l-1.9,10.74c-.46,2.77-.9,2.47,3.38,2.47.5,0,.62-.41.69-.79l2-11.6a10.71,10.71,0,0,1,.61-2.42,4,4,0,0,1,2.29-2.23A2.74,2.74,0,0,1,143.82,22a4.15,4.15,0,0,1,0,2.78c-.27,1.59-2.14,11.56-2.14,12.34a.76.76,0,0,0,.85.71c4.16,0,3.17.57,4-3.39.5-2.48.91-5.38,1.39-7.86.69-3.58,1.36-6.14-1.8-8.75-2.35-1.94-6.54-1.46-8.71.29l-.58.48a4.4,4.4,0,0,1-.54.52"/><path class="cls-1" d="M33.61,34.22c-1.2,0-3.11-.6-3.06-2.33a4.6,4.6,0,0,1,.18-1.4L33,20.43c.17-.78.37-1.47.52-2.24.08-.35.25-.7.07-.91-.82-.34-4-.32-4.1,0-.28,1.22-.55,2.47-.85,3.67s-.54,2.54-.83,3.76c-.22.93-1.57,6.67-1.57,7.54,0,2.4,2,4.06,4.11,4.72a9.11,9.11,0,0,0,7-.47A7.07,7.07,0,0,1,36,40.17a5.65,5.65,0,0,1-3.75,1.48,5.1,5.1,0,0,1-2.93-.85c-1-.53-.77-.61-1.66.06l-.78.57c-1.49,1.1-2.57,1.2,1.3,2.77,4.9,2,11.5-.12,13-5.66.16-.65.34-1.37.48-2.06L43,30.09c.5-2.52,1.29-5.91,1.88-8.43.15-.66.31-1.41.46-2.07.09-.36.15-.67.24-1,.47-1.87.48-1.49-3.47-1.49-.51,0-.56.47-.64.91s-.2.85-.31,1.32-.19.8-.29,1.26l-2,9.2c-.41,1.93-.42,3.14-2.44,4a9.85,9.85,0,0,1-2.76.49"/><path class="cls-1" d="M108.65,22.07c.81,0,.78-.33,1.74-.87a3.61,3.61,0,0,1,2.92-.46,1.68,1.68,0,0,1,.84.49c.6.51.72.91.72,2-.19-.05-.37-.19-.58-.27a7.14,7.14,0,0,0-5.05-.13,9.52,9.52,0,0,0-5.15,4,8.08,8.08,0,0,0-1.11,3.4c-.3,1.79-.46,2.81.38,4.48,1.57,3.15,5.72,4,8.63,2.78a5.61,5.61,0,0,1,.83-.38.88.88,0,0,0,.92.64c3.46,0,2.92.53,3.55-3.23.22-1.33.46-2.65.7-4s.52-2.71.74-4c.41-2.39,1-4.44,0-6.52a6.22,6.22,0,0,0-5.49-3.42,8.63,8.63,0,0,0-4.63,1.16c-2.53,1.25-2,1.44-1.42,2.56.2.39.37.68.59,1s.33.82.87.82m.71,11.65a2.36,2.36,0,0,1-2.19-1.27,5,5,0,0,1,1.31-5.18,3.73,3.73,0,0,1,2.71-1c1.13,0,2.62.49,2.62,1.76l-.39,2.16c-.26,1.47-.2,2.44-1.94,3.14A6.33,6.33,0,0,1,109.36,33.72Z"/><path class="cls-1" d="M149.67,31.67c0,1.75-.11,2.07.68,3.56,1.09,2.05,3.68,3.08,6,3.08a11.44,11.44,0,0,0,3.39-.7,9.92,9.92,0,0,0,2.59-1.51c1.66-1.48,2-1.6-.19-3.23-1.64-1.24-1.24-.68-3,.51-2,1.32-4.95,1-4.95-1.35l0-1.08c.11-.44.17-.22,1-.26l1.83-.07c.51,0,.78-.06,1.2-.07a9.85,9.85,0,0,0,4-1.18,7.57,7.57,0,0,0,3.53-4.16c1-2.71.55-5.13-1.73-7-2.88-2.36-7.53-1.42-10.07.85a10.35,10.35,0,0,0-2.1,2.56c-.9,1.51-1.31,5.32-1.72,7.39Zm5.58-5.15c.33-1.43.35-3,1-4.11,1.48-2.36,5.18-2.54,5.76-.37a3.35,3.35,0,0,1-.69,2.9C160,26.66,158.19,26.52,155.25,26.52Z"/><path class="cls-2" d="M62.13,47.91c.29-.21,19.53-32.47,21.08-35l1.51-2.51,1.11-1.86a3.48,3.48,0,0,0,.37-.68C86.05,7.61,82,5,81.52,4.66a1.53,1.53,0,0,0-.75-.38L73.21,21.93c-.1.23-.18.48-.28.71-1.27,2.8-2.57,6.05-3.81,8.89L68,34.25c-.21.49-.37.85-.57,1.34s-.39,1-.59,1.38c-.53,1.1-1.77,4.17-2.33,5.44Z"/><path class="cls-1" d="M64.39,30.9a5.9,5.9,0,0,0,1.4,4.24,3.42,3.42,0,0,0,.42.43l.24.19c.24.19,0,.12.34.15l1.1-2.71a7.22,7.22,0,0,0,1-2.87c0-1.82.93-6.21,1.29-8.31a4,4,0,0,1,3.32-3.38c.81-.17.62,0,1.27-1.63.19-.49.36-.88.55-1.35a11.17,11.17,0,0,0,.56-1.43l-1.06-.07a9,9,0,0,0-8.29,5.27A26.24,26.24,0,0,0,65.29,25c-.17,1.25-.9,4.93-.9,5.87"/><path class="cls-1" d="M71.17,33.86l-2.4,3.82a8.83,8.83,0,0,0,3.62.23,8.54,8.54,0,0,0,7.52-6.81l1.37-7.81c.41-2.72-.68-4.12-.76-4.18-.61.8-3.1,4.79-3.55,5.52A6,6,0,0,0,76.28,27c-.15.88-.3,1.7-.43,2.54a8.43,8.43,0,0,1-.66,2.38,3.64,3.64,0,0,1-1.48,1.48,4.49,4.49,0,0,1-1.09.39,6.16,6.16,0,0,1-1.45.1"/><path class="cls-3" d="M129.18,11.34a1.65,1.65,0,0,1-1.63,1.31c-.77,0-1.16-.52-1-1.31A1.66,1.66,0,0,1,128.16,10,1,1,0,0,1,129.18,11.34Z"/><path class="cls-3" d="M139,7.94c-.63,2.61-2.87,4.78-5.15,4.78a3.17,3.17,0,0,1-3.15-4.06l1-4.45a5.44,5.44,0,0,1,5-4.07c2.15,0,3.53,2.1,2.94,4.78h-2.08c.36-1.53-.27-2.68-1.34-2.68a2.69,2.69,0,0,0-2.48,2l-1,4.45a1.55,1.55,0,0,0,1.56,2c1.07,0,2.25-1.23,2.6-2.71Z"/><path class="cls-3" d="M149.06,8.66A5.24,5.24,0,0,1,144,12.72c-2.1,0-3.84-1.33-3.2-4.06l1-4.48a5.16,5.16,0,0,1,5.08-4c2.1,0,3.87,1.28,3.23,4Zm-1-4.48a1.53,1.53,0,0,0-1.63-2,2.65,2.65,0,0,0-2.56,2l-1,4.48a1.53,1.53,0,0,0,1.64,2,2.62,2.62,0,0,0,2.56-2Z"/><path class="cls-3" d="M152.08,12.59h-2L152.88.29h1.62l0,1.21A3.32,3.32,0,0,1,157,.14a2.36,2.36,0,0,1,2.54,2.05,4,4,0,0,1,3.52-2,3.1,3.1,0,0,1,3,4.07l-1.94,8.38h-2l1.94-8.38c.67-2.79-3.37-2.66-4,0l-1.94,8.38h-2.05L158,4.21a1.55,1.55,0,0,0-1.55-2,2.67,2.67,0,0,0-2.44,2Z"/></svg>